<?xml version="1.0" encoding="UTF-8"?>
<svg id="Layer_1" xmlns="http://www.w3.org/2000/svg" version="1.1" viewBox="0 0 362 362">
  <!-- Generator: Adobe Illustrator 29.5.1, SVG Export Plug-In . SVG Version: 2.1.0 Build 141)  -->
  <defs>
    <style>
      .st0 {
        fill: #231f20;
      }

      .st1, .st2 {
        fill: #fff;
      }

      .st3 {
        fill: none;
        stroke: #000;
        stroke-miterlimit: 10;
        stroke-width: 2px;
      }

      .st2 {
        isolation: isolate;
        opacity: .5;
      }
    </style>
  </defs>
  <path class="st1" d="M313.7,29.5c10.4,0,18.8,8.4,18.8,18.8v265.4c0,10.4-8.4,18.8-18.8,18.8H48.3c-10.4,0-18.8-8.4-18.8-18.8V48.3c0-10.4,8.4-18.8,18.8-18.8h265.4M313.7,9.5H48.3c-21.4,0-38.8,17.4-38.8,38.8v265.4c0,21.4,17.4,38.8,38.8,38.8h265.4c21.4,0,38.8-17.4,38.8-38.8V48.3c0-21.4-17.4-38.8-38.8-38.8h0Z"/>
  <g>
    <path class="st2" d="M48.3,337.5c-13.1,0-23.8-10.7-23.8-23.8V48.3c0-13.1,10.7-23.8,23.8-23.8h265.4c13.1,0,23.8,10.7,23.8,23.8v265.4c0,13.1-10.7,23.8-23.8,23.8H48.3Z"/>
    <path d="M313.7,29.5c10.4,0,18.8,8.4,18.8,18.8v265.4c0,10.4-8.4,18.8-18.8,18.8H48.3c-10.4,0-18.8-8.4-18.8-18.8V48.3c0-10.4,8.4-18.8,18.8-18.8h265.4M313.7,19.5H48.3c-15.9,0-28.8,12.9-28.8,28.8v265.4c0,15.9,12.9,28.8,28.8,28.8h265.4c15.9,0,28.8-12.9,28.8-28.8V48.3c0-15.9-12.9-28.8-28.8-28.8h0Z"/>
  </g>
  <line class="st3" x1="130.5" y1="29.5" x2="130.5" y2="332.5"/>
  <line class="st3" x1="231.5" y1="29.5" x2="231.5" y2="332.5"/>
  <line class="st3" x1="29.5" y1="231.5" x2="332.5" y2="231.5"/>
  <line class="st3" x1="29.5" y1="130.5" x2="332.5" y2="130.5"/>
  <rect class="st0" x="129.7" y="27.9" width="102.6" height="102.6"/>
  <rect class="st0" x="29.5" y="129.7" width="102.6" height="102.6"/>
  <rect class="st0" x="232.3" y="232.3" width="102.6" height="102.6"/>
</svg>